{
	"asset":{
		"generator":"Khronos glTF Blender I/O v3.5.30",
		"version":"2.0"
	},
	"scene":0,
	"scenes":[
		{
			"name":"Scene",
			"nodes":[
				0,
				1,
				2
			]
		}
	],
	"nodes":[
		{
			"mesh":0,
			"name":"Donut",
			"translation":[
				0,
				0.01982351951301098,
				0
			]
		},
		{
			"mesh":1,
			"name":"Icing",
			"translation":[
				0,
				0.01982351951301098,
				0
			]
		},
		{
			"mesh":2,
			"name":"Plane",
			"translation":[
				0.003065334400162101,
				0.0032673648092895746,
				0.003947315737605095
			]
		}
	],
	"materials":[
		{
			"doubleSided":true,
			"name":"Material.002",
			"pbrMetallicRoughness":{
				"baseColorFactor":[
					0.8000000715255737,
					0.5544993281364441,
					0.2114897221326828,
					1
				],
				"metallicFactor":0,
				"roughnessFactor":0.5
			}
		},
		{
			"doubleSided":true,
			"name":"Material.001",
			"pbrMetallicRoughness":{
				"baseColorFactor":[
					0.8000000715255737,
					0.32207632064819336,
					0.7188370823860168,
					1
				],
				"metallicFactor":0,
				"roughnessFactor":0.15445859730243683
			}
		},
		{
			"doubleSided":true,
			"name":"Material.003",
			"pbrMetallicRoughness":{
				"baseColorFactor":[
					0.8000000715255737,
					0.21353910863399506,
					0.7235411405563354,
					1
				],
				"metallicFactor":0,
				"roughnessFactor":0.5
			}
		}
	],
	"meshes":[
		{
			"name":"Torus",
			"primitives":[
				{
					"attributes":{
						"POSITION":0,
						"TEXCOORD_0":1,
						"NORMAL":2
					},
					"indices":3,
					"material":0
				}
			]
		},
		{
			"name":"Torus.001",
			"primitives":[
				{
					"attributes":{
						"POSITION":4,
						"TEXCOORD_0":5,
						"NORMAL":6
					},
					"indices":7,
					"material":1
				}
			]
		},
		{
			"name":"Plane",
			"primitives":[
				{
					"attributes":{
						"POSITION":8,
						"TEXCOORD_0":9,
						"NORMAL":10
					},
					"indices":11,
					"material":2
				}
			]
		}
	],
	"accessors":[
		{
			"bufferView":0,
			"componentType":5126,
			"count":3201,
			"max":[
				0.04891165718436241,
				0.020685695111751556,
				0.049389176070690155
			],
			"min":[
				-0.048763956874608994,
				-0.019840264692902565,
				-0.04925936460494995
			],
			"type":"VEC3"
		},
		{
			"bufferView":1,
			"componentType":5126,
			"count":3201,
			"type":"VEC2"
		},
		{
			"bufferView":2,
			"componentType":5126,
			"count":3201,
			"type":"VEC3"
		},
		{
			"bufferView":3,
			"componentType":5123,
			"count":18432,
			"type":"SCALAR"
		},
		{
			"bufferView":4,
			"componentType":5126,
			"count":11836,
			"max":[
				0.05015583336353302,
				0.025974996387958527,
				0.05152187868952751
			],
			"min":[
				-0.05003096163272858,
				-0.010719338431954384,
				-0.05125674232840538
			],
			"type":"VEC3"
		},
		{
			"bufferView":5,
			"componentType":5126,
			"count":11836,
			"type":"VEC2"
		},
		{
			"bufferView":6,
			"componentType":5126,
			"count":11836,
			"type":"VEC3"
		},
		{
			"bufferView":7,
			"componentType":5123,
			"count":70704,
			"type":"SCALAR"
		},
		{
			"bufferView":8,
			"componentType":5126,
			"count":4,
			"max":[
				1,
				0,
				1
			],
			"min":[
				-1,
				0,
				-1
			],
			"type":"VEC3"
		},
		{
			"bufferView":9,
			"componentType":5126,
			"count":4,
			"type":"VEC2"
		},
		{
			"bufferView":10,
			"componentType":5126,
			"count":4,
			"type":"VEC3"
		},
		{
			"bufferView":11,
			"componentType":5123,
			"count":6,
			"type":"SCALAR"
		}
	],
	"bufferViews":[
		{
			"buffer":0,
			"byteLength":38412,
			"byteOffset":0,
			"target":34962
		},
		{
			"buffer":0,
			"byteLength":25608,
			"byteOffset":38412,
			"target":34962
		},
		{
			"buffer":0,
			"byteLength":38412,
			"byteOffset":64020,
			"target":34962
		},
		{
			"buffer":0,
			"byteLength":36864,
			"byteOffset":102432,
			"target":34963
		},
		{
			"buffer":0,
			"byteLength":142032,
			"byteOffset":139296,
			"target":34962
		},
		{
			"buffer":0,
			"byteLength":94688,
			"byteOffset":281328,
			"target":34962
		},
		{
			"buffer":0,
			"byteLength":142032,
			"byteOffset":376016,
			"target":34962
		},
		{
			"buffer":0,
			"byteLength":141408,
			"byteOffset":518048,
			"target":34963
		},
		{
			"buffer":0,
			"byteLength":48,
			"byteOffset":659456,
			"target":34962
		},
		{
			"buffer":0,
			"byteLength":32,
			"byteOffset":659504,
			"target":34962
		},
		{
			"buffer":0,
			"byteLength":48,
			"byteOffset":659536,
			"target":34962
		},
		{
			"buffer":0,
			"byteLength":12,
			"byteOffset":659584,
			"target":34963
		}
	],
	"buffers":[
		{
			"byteLength":659596,
			"uri":"data:application/octet-stream;base64,"
		}
	]
}
